<svg width="623" height="618" viewBox="0 0 623 618" fill="none" xmlns="http://www.w3.org/2000/svg">
<path d="M144 111C147.866 111 151 108.09 151 104.5C151 100.91 147.866 98 144 98C140.134 98 137 100.91 137 104.5C137 108.09 140.134 111 144 111Z" fill="#E6E6E6"/>
<path d="M164 111C167.866 111 171 108.09 171 104.5C171 100.91 167.866 98 164 98C160.134 98 157 100.91 157 104.5C157 108.09 160.134 111 164 111Z" fill="#E6E6E6"/>
<path d="M184.5 111C188.09 111 191 108.09 191 104.5C191 100.91 188.09 98 184.5 98C180.91 98 178 100.91 178 104.5C178 108.09 180.91 111 184.5 111Z" fill="#E6E6E6"/>
<path d="M205 111C208.866 111 212 108.09 212 104.5C212 100.91 208.866 98 205 98C201.134 98 198 100.91 198 104.5C198 108.09 201.134 111 205 111Z" fill="#E6E6E6"/>
<path d="M225.5 111C229.09 111 232 108.09 232 104.5C232 100.91 229.09 98 225.5 98C221.91 98 219 100.91 219 104.5C219 108.09 221.91 111 225.5 111Z" fill="#E6E6E6"/>
<path d="M246 111C249.866 111 253 108.09 253 104.5C253 100.91 249.866 98 246 98C242.134 98 239 100.91 239 104.5C239 108.09 242.134 111 246 111Z" fill="#E6E6E6"/>
<path d="M266.5 111C270.09 111 273 108.09 273 104.5C273 100.91 270.09 98 266.5 98C262.91 98 260 100.91 260 104.5C260 108.09 262.91 111 266.5 111Z" fill="#E6E6E6"/>
<path d="M282.222 113H127.778C127.042 112.999 126.336 112.7 125.815 112.167C125.294 111.635 125.001 110.913 125 110.159V98.8405C125.001 98.0874 125.294 97.3654 125.815 96.8329C126.336 96.3004 127.042 96.0009 127.778 96H282.222C282.958 96.0009 283.664 96.3004 284.185 96.8329C284.706 97.3654 284.999 98.0874 285 98.8405V110.159C284.999 110.913 284.706 111.635 284.185 112.167C283.664 112.7 282.958 112.999 282.222 113ZM127.778 97.1362C127.336 97.1367 126.913 97.3164 126.6 97.6359C126.288 97.9554 126.112 98.3887 126.111 98.8405V110.159C126.112 110.611 126.288 111.045 126.6 111.364C126.913 111.684 127.336 111.863 127.778 111.864H282.222C282.664 111.863 283.087 111.684 283.4 111.364C283.712 111.045 283.888 110.611 283.889 110.159V98.8405C283.888 98.3886 283.712 97.9554 283.4 97.6359C283.087 97.3164 282.664 97.1367 282.222 97.1362L127.778 97.1362Z" fill="#E6E6E6"/>
<path d="M160.829 50.5972C161.249 50.5977 161.652 50.7661 161.949 51.0656C162.247 51.365 162.414 51.7709 162.414 52.1944V86.8056C162.414 87.229 162.247 87.635 161.949 87.9344C161.652 88.2339 161.249 88.4023 160.829 88.4028H127.171C126.751 88.4023 126.348 88.2339 126.051 87.9344C125.753 87.635 125.586 87.229 125.586 86.8056V52.1944C125.586 51.771 125.753 51.365 126.051 51.0656C126.348 50.7661 126.751 50.5977 127.171 50.5972L160.829 50.5972ZM160.829 49H127.171C126.33 49 125.524 49.3366 124.929 49.9356C124.334 50.5347 124 51.3472 124 52.1944V86.8056C124 87.6528 124.334 88.4653 124.929 89.0644C125.524 89.6634 126.33 90 127.171 90H160.829C161.67 90 162.476 89.6634 163.071 89.0644C163.666 88.4653 164 87.6528 164 86.8056V52.1944C164 51.3472 163.666 50.5347 163.071 49.9356C162.476 49.3366 161.67 49 160.829 49Z" fill="#E6E6E6"/>
<path d="M156.171 60H132.829C132.72 60.0008 132.613 59.9755 132.512 59.9256C132.412 59.8757 132.32 59.8022 132.243 59.7093C132.166 59.6163 132.105 59.5058 132.063 59.3841C132.021 59.2624 132 59.1318 132 59C132 58.8682 132.021 58.7376 132.063 58.6159C132.105 58.4942 132.166 58.3837 132.243 58.2907C132.32 58.1978 132.412 58.1243 132.512 58.0744C132.613 58.0245 132.72 57.9992 132.829 58H156.171C156.28 57.9992 156.387 58.0245 156.488 58.0744C156.588 58.1243 156.68 58.1978 156.757 58.2907C156.834 58.3837 156.895 58.4942 156.937 58.6159C156.979 58.7376 157 58.8682 157 59C157 59.1318 156.979 59.2624 156.937 59.3841C156.895 59.5058 156.834 59.6163 156.757 59.7093C156.68 59.8022 156.588 59.8757 156.488 59.9256C156.387 59.9755 156.28 60.0008 156.171 60Z" fill="#0386E5"/>
<path d="M156.171 65H132.829C132.72 65.0004 132.613 64.9878 132.512 64.9628C132.412 64.9379 132.32 64.9011 132.243 64.8546C132.166 64.8082 132.105 64.7529 132.063 64.692C132.021 64.6312 132 64.5659 132 64.5C132 64.4341 132.021 64.3688 132.063 64.3079C132.105 64.2471 132.166 64.1918 132.243 64.1454C132.32 64.0989 132.412 64.0621 132.512 64.0372C132.613 64.0122 132.72 63.9996 132.829 64H156.171C156.28 63.9996 156.387 64.0122 156.488 64.0372C156.588 64.0621 156.68 64.0989 156.757 64.1454C156.834 64.1918 156.895 64.2471 156.937 64.3079C156.979 64.3688 157 64.4341 157 64.5C157 64.5659 156.979 64.6312 156.937 64.692C156.895 64.7529 156.834 64.8082 156.757 64.8546C156.68 64.9011 156.588 64.9379 156.488 64.9628C156.387 64.9878 156.28 65.0004 156.171 65Z" fill="#0386E5"/>
<path d="M156.171 71H132.829C132.72 71.0004 132.613 70.9878 132.512 70.9628C132.412 70.9379 132.32 70.9011 132.243 70.8546C132.166 70.8082 132.105 70.7529 132.063 70.692C132.021 70.6312 132 70.5659 132 70.5C132 70.4341 132.021 70.3688 132.063 70.3079C132.105 70.2471 132.166 70.1918 132.243 70.1454C132.32 70.0989 132.412 70.0621 132.512 70.0372C132.613 70.0122 132.72 69.9996 132.829 70H156.171C156.28 69.9996 156.387 70.0122 156.488 70.0372C156.588 70.0621 156.68 70.0989 156.757 70.1454C156.834 70.1918 156.895 70.2471 156.937 70.3079C156.979 70.3688 157 70.4341 157 70.5C157 70.5659 156.979 70.6312 156.937 70.692C156.895 70.7529 156.834 70.8082 156.757 70.8546C156.68 70.9011 156.588 70.9379 156.488 70.9628C156.387 70.9878 156.28 71.0004 156.171 71Z" fill="#0386E5"/>
<path d="M156.171 77H132.829C132.72 77.0008 132.613 76.9755 132.512 76.9256C132.412 76.8757 132.32 76.8022 132.243 76.7093C132.166 76.6163 132.105 76.5058 132.063 76.3841C132.021 76.2624 132 76.1318 132 76C132 75.8682 132.021 75.7376 132.063 75.6159C132.105 75.4942 132.166 75.3837 132.243 75.2907C132.32 75.1978 132.412 75.1243 132.512 75.0744C132.613 75.0245 132.72 74.9992 132.829 75H156.171C156.28 74.9992 156.387 75.0245 156.488 75.0744C156.588 75.1243 156.68 75.1978 156.757 75.2907C156.834 75.3837 156.895 75.4942 156.937 75.6159C156.979 75.7376 157 75.8682 157 76C157 76.1318 156.979 76.2624 156.937 76.3841C156.895 76.5058 156.834 76.6163 156.757 76.7093C156.68 76.8022 156.588 76.8757 156.488 76.9256C156.387 76.9755 156.28 77.0008 156.171 77Z" fill="#0386E5"/>
<path d="M156.176 82H132.824C132.606 82 132.396 81.9473 132.241 81.8536C132.087 81.7598 132 81.6326 132 81.5C132 81.3674 132.087 81.2402 132.241 81.1464C132.396 81.0527 132.606 81 132.824 81H156.176C156.394 81 156.604 81.0527 156.759 81.1464C156.913 81.2402 157 81.3674 157 81.5C157 81.6326 156.913 81.7598 156.759 81.8536C156.604 81.9473 156.394 82 156.176 82Z" fill="#0386E5"/>
<path d="M276.75 50.5972C277.18 50.5977 277.594 50.7661 277.898 51.0655C278.203 51.365 278.374 51.7709 278.375 52.1944V86.8056C278.374 87.229 278.203 87.635 277.898 87.9344C277.594 88.2338 277.18 88.4023 276.75 88.4028H242.25C241.82 88.4023 241.406 88.2338 241.102 87.9344C240.797 87.635 240.626 87.229 240.625 86.8056V52.1944C240.626 51.7709 240.797 51.365 241.102 51.0656C241.406 50.7661 241.82 50.5977 242.25 50.5972L276.75 50.5972ZM276.75 49H242.25C241.388 49 240.562 49.3366 239.952 49.9356C239.342 50.5347 239 51.3472 239 52.1944V86.8056C239 87.6528 239.342 88.4653 239.952 89.0644C240.562 89.6634 241.388 90 242.25 90H276.75C277.612 90 278.438 89.6634 279.048 89.0644C279.658 88.4653 280 87.6528 280 86.8056V52.1944C280 51.3472 279.658 50.5347 279.048 49.9356C278.438 49.3365 277.612 49 276.75 49Z" fill="#E6E6E6"/>
<path d="M271.213 60H248.796C248.692 60.0008 248.588 59.9755 248.492 59.9256C248.395 59.8757 248.308 59.8022 248.234 59.7093C248.16 59.6163 248.101 59.5058 248.061 59.3841C248.021 59.2624 248 59.1318 248 59C248 58.8682 248.021 58.7376 248.061 58.6159C248.101 58.4942 248.16 58.3837 248.234 58.2907C248.308 58.1978 248.395 58.1243 248.492 58.0744C248.588 58.0245 248.692 57.9992 248.796 58H271.213C271.422 58.0016 271.623 58.1077 271.77 58.2951C271.917 58.4824 272 58.7359 272 59C272 59.2642 271.917 59.5176 271.77 59.7049C271.623 59.8923 271.422 59.9984 271.213 60Z" fill="#0386E5"/>
<path d="M271.213 65H248.796C248.692 65.0004 248.588 64.9878 248.492 64.9628C248.395 64.9379 248.308 64.9011 248.234 64.8546C248.16 64.8082 248.101 64.7529 248.061 64.692C248.021 64.6312 248 64.5659 248 64.5C248 64.4341 248.021 64.3688 248.061 64.3079C248.101 64.2471 248.16 64.1918 248.234 64.1454C248.308 64.0989 248.395 64.0621 248.492 64.0372C248.588 64.0122 248.692 63.9996 248.796 64H271.213C271.422 64.0008 271.623 64.0539 271.77 64.1475C271.917 64.2412 272 64.3679 272 64.5C272 64.6321 271.917 64.7588 271.77 64.8525C271.623 64.9461 271.422 64.9992 271.213 65Z" fill="#0386E5"/>
<path d="M271.213 71H248.796C248.692 71.0004 248.588 70.9878 248.492 70.9628C248.395 70.9379 248.308 70.9011 248.234 70.8546C248.16 70.8082 248.101 70.7529 248.061 70.692C248.021 70.6312 248 70.5659 248 70.5C248 70.4341 248.021 70.3688 248.061 70.3079C248.101 70.2471 248.16 70.1918 248.234 70.1454C248.308 70.0989 248.395 70.0621 248.492 70.0372C248.588 70.0122 248.692 69.9996 248.796 70H271.213C271.422 70.0008 271.623 70.0539 271.77 70.1475C271.917 70.2412 272 70.3679 272 70.5C272 70.6321 271.917 70.7588 271.77 70.8525C271.623 70.9461 271.422 70.9992 271.213 71Z" fill="#0386E5"/>
<path d="M271.213 77H248.796C248.692 77.0008 248.588 76.9755 248.492 76.9256C248.395 76.8757 248.308 76.8022 248.234 76.7093C248.16 76.6163 248.101 76.5058 248.061 76.3841C248.021 76.2624 248 76.1318 248 76C248 75.8682 248.021 75.7376 248.061 75.6159C248.101 75.4942 248.16 75.3837 248.234 75.2907C248.308 75.1978 248.395 75.1243 248.492 75.0744C248.588 75.0245 248.692 74.9992 248.796 75H271.213C271.422 75.0016 271.623 75.1077 271.77 75.2951C271.917 75.4824 272 75.7358 272 76C272 76.2641 271.917 76.5176 271.77 76.7049C271.623 76.8923 271.422 76.9984 271.213 77Z" fill="#0386E5"/>
<path d="M271.209 82H248.791C248.582 82 248.38 81.9473 248.232 81.8536C248.083 81.7598 248 81.6326 248 81.5C248 81.3674 248.083 81.2402 248.232 81.1464C248.38 81.0527 248.582 81 248.791 81H271.209C271.418 81 271.62 81.0527 271.768 81.1464C271.917 81.2402 272 81.3674 272 81.5C272 81.6326 271.917 81.7598 271.768 81.8536C271.62 81.9473 271.418 82 271.209 82Z" fill="#0386E5"/>
<path d="M391.75 117.558C392.18 117.559 392.593 117.723 392.898 118.015C393.203 118.307 393.374 118.703 393.375 119.116V152.883C393.374 153.297 393.203 153.693 392.898 153.985C392.593 154.277 392.18 154.441 391.75 154.442H357.25C356.82 154.441 356.407 154.277 356.102 153.985C355.797 153.693 355.626 153.297 355.625 152.883V119.117C355.626 118.703 355.797 118.307 356.102 118.015C356.407 117.723 356.82 117.559 357.25 117.558L391.75 117.558ZM391.75 116H357.25C356.388 116 355.562 116.328 354.952 116.913C354.342 117.497 354 118.29 354 119.117V152.884C354 153.71 354.342 154.503 354.952 155.087C355.562 155.672 356.388 156 357.25 156H391.75C392.612 156 393.438 155.672 394.048 155.087C394.658 154.503 395 153.71 395 152.884V119.117C395 118.29 394.658 117.497 394.048 116.913C393.438 116.328 392.612 116 391.75 116Z" fill="#0386E5"/>
<path d="M386.213 126H363.796C363.692 126 363.588 125.988 363.492 125.963C363.395 125.938 363.308 125.901 363.234 125.855C363.16 125.808 363.101 125.753 363.061 125.692C363.021 125.631 363 125.566 363 125.5C363 125.434 363.021 125.369 363.061 125.308C363.101 125.247 363.16 125.192 363.234 125.145C363.308 125.099 363.395 125.062 363.492 125.037C363.588 125.012 363.692 125 363.796 125H386.213C386.422 125.001 386.623 125.054 386.77 125.148C386.917 125.241 387 125.368 387 125.5C387 125.632 386.917 125.759 386.77 125.852C386.623 125.946 386.422 125.999 386.213 126Z" fill="#0386E5"/>
<path d="M386.209 132H363.791C363.582 132 363.38 131.895 363.232 131.707C363.083 131.52 363 131.265 363 131C363 130.735 363.083 130.48 363.232 130.293C363.38 130.105 363.582 130 363.791 130H386.209C386.418 130 386.62 130.105 386.768 130.293C386.917 130.48 387 130.735 387 131C387 131.265 386.917 131.52 386.768 131.707C386.62 131.895 386.418 132 386.209 132Z" fill="#0386E5"/>
<path d="M386.213 137H363.795C363.691 137 363.588 136.988 363.491 136.963C363.395 136.938 363.307 136.901 363.233 136.854C363.159 136.808 363.101 136.753 363.061 136.692C363.021 136.631 363 136.566 363 136.5C363 136.434 363.021 136.369 363.061 136.308C363.101 136.247 363.159 136.192 363.233 136.146C363.307 136.099 363.395 136.062 363.491 136.037C363.588 136.012 363.691 136 363.795 136H386.213C386.422 136.001 386.623 136.054 386.77 136.148C386.917 136.241 387 136.368 387 136.5C387 136.632 386.917 136.759 386.77 136.852C386.623 136.946 386.422 136.999 386.213 137Z" fill="#0386E5"/>
<path d="M386.213 143H363.796C363.692 143 363.588 142.988 363.492 142.963C363.395 142.938 363.308 142.901 363.234 142.855C363.16 142.808 363.101 142.753 363.061 142.692C363.021 142.631 363 142.566 363 142.5C363 142.434 363.021 142.369 363.061 142.308C363.101 142.247 363.16 142.192 363.234 142.145C363.308 142.099 363.395 142.062 363.492 142.037C363.588 142.012 363.692 142 363.796 142H386.213C386.422 142.001 386.623 142.054 386.77 142.148C386.917 142.241 387 142.368 387 142.5C387 142.632 386.917 142.759 386.77 142.852C386.623 142.946 386.422 142.999 386.213 143Z" fill="#0386E5"/>
<path d="M386.213 149H363.796C363.692 149.001 363.588 148.976 363.492 148.926C363.395 148.876 363.308 148.802 363.234 148.709C363.16 148.616 363.101 148.506 363.061 148.384C363.021 148.262 363 148.132 363 148C363 147.868 363.021 147.738 363.061 147.616C363.101 147.494 363.16 147.384 363.234 147.291C363.308 147.198 363.395 147.124 363.492 147.074C363.588 147.024 363.692 146.999 363.796 147H386.213C386.422 147.002 386.623 147.108 386.77 147.295C386.917 147.482 387 147.736 387 148C387 148.264 386.917 148.518 386.77 148.705C386.623 148.892 386.422 148.998 386.213 149Z" fill="#0386E5"/>
<path d="M219.441 90H184.558C183.615 89.9989 182.71 89.6246 182.043 88.9591C181.376 88.2937 181.001 87.3915 181 86.4504V61.55C181.001 60.6088 181.376 59.7065 182.043 59.041C182.71 58.3755 183.615 58.0011 184.558 58H219.441C220.385 58.001 221.289 58.3754 221.957 59.0409C222.624 59.7064 222.999 60.6088 223 61.55V86.4504C222.999 87.3916 222.624 88.2938 221.956 88.9592C221.289 89.6247 220.385 89.999 219.441 90ZM184.558 59.5975C184.039 59.5982 183.542 59.8041 183.175 60.1701C182.808 60.5361 182.602 61.0324 182.601 61.55V86.4504C182.602 86.968 182.808 87.4642 183.175 87.8301C183.542 88.1961 184.039 88.4019 184.558 88.4025H219.441C219.96 88.4019 220.458 88.1961 220.825 87.8302C221.192 87.4642 221.398 86.968 221.399 86.4504V61.55C221.398 61.0323 221.192 60.5361 220.825 60.1701C220.458 59.8041 219.96 59.5981 219.441 59.5975H184.558Z" fill="#E6E6E6"/>
<path d="M213.204 69H190.787C190.578 68.9992 190.377 68.9461 190.23 68.8525C190.083 68.7588 190 68.6321 190 68.5C190 68.3679 190.083 68.2412 190.23 68.1475C190.377 68.0539 190.578 68.0008 190.787 68H213.204C213.308 67.9996 213.412 68.0122 213.508 68.0372C213.605 68.0621 213.692 68.0989 213.766 68.1454C213.84 68.1918 213.899 68.2471 213.939 68.308C213.979 68.3688 214 68.4341 214 68.5C214 68.5659 213.979 68.6312 213.939 68.6921C213.899 68.7529 213.84 68.8082 213.766 68.8546C213.692 68.9011 213.605 68.9379 213.508 68.9628C213.412 68.9878 213.308 69.0004 213.204 69Z" fill="#0386E5"/>
<path d="M213.204 75H190.787C190.578 74.9984 190.377 74.8923 190.23 74.7049C190.083 74.5176 190 74.2642 190 74C190 73.7359 190.083 73.4824 190.23 73.2951C190.377 73.1077 190.578 73.0016 190.787 73H213.204C213.308 72.9992 213.412 73.0245 213.508 73.0744C213.605 73.1243 213.692 73.1978 213.766 73.2907C213.84 73.3837 213.899 73.4942 213.939 73.6159C213.979 73.7376 214 73.8682 214 74C214 74.1318 213.979 74.2624 213.939 74.3841C213.899 74.5058 213.84 74.6163 213.766 74.7093C213.692 74.8022 213.605 74.8757 213.508 74.9256C213.412 74.9755 213.308 75.0008 213.204 75Z" fill="#0386E5"/>
<path d="M213.204 81H190.787C190.578 80.9984 190.377 80.8923 190.23 80.7049C190.083 80.5176 190 80.2641 190 80C190 79.7358 190.083 79.4824 190.23 79.2951C190.377 79.1077 190.578 79.0016 190.787 79H213.204C213.308 78.9992 213.412 79.0245 213.508 79.0744C213.605 79.1243 213.692 79.1978 213.766 79.2907C213.84 79.3837 213.899 79.4942 213.939 79.6159C213.979 79.7376 214 79.8682 214 80C214 80.1318 213.979 80.2624 213.939 80.3841C213.899 80.5058 213.84 80.6163 213.766 80.7093C213.692 80.8022 213.605 80.8757 213.508 80.9256C213.412 80.9755 213.308 81.0008 213.204 81Z" fill="#0386E5"/>
<path d="M334.395 103.859L300.589 94.0969C299.675 93.8318 298.904 93.2166 298.445 92.3861C297.986 91.5557 297.877 90.5779 298.141 89.6672L305.156 65.5788C305.422 64.6687 306.04 63.9008 306.874 63.4437C307.708 62.9866 308.69 62.8775 309.605 63.1405L343.41 72.903C344.324 73.1681 345.095 73.7833 345.555 74.6139C346.014 75.4444 346.123 76.4223 345.859 77.3331L338.844 101.422C338.578 102.332 337.96 103.099 337.126 103.556C336.292 104.014 335.31 104.122 334.395 103.859ZM309.154 64.6859C308.651 64.5413 308.111 64.6013 307.653 64.8527C307.194 65.1042 306.854 65.5265 306.708 66.027L299.693 90.1154C299.548 90.6162 299.608 91.154 299.86 91.6107C300.113 92.0674 300.537 92.4057 301.039 92.5514L334.845 102.314C335.348 102.459 335.888 102.399 336.347 102.147C336.806 101.896 337.145 101.474 337.292 100.973L344.307 76.885C344.452 76.384 344.392 75.8462 344.139 75.3894C343.887 74.9327 343.463 74.5943 342.96 74.4484L309.154 64.6859Z" fill="#E6E6E6"/>
<path d="M333.993 81.968L312.567 75.5856C312.367 75.5255 312.198 75.3862 312.097 75.1984C311.997 75.0106 311.973 74.7895 312.031 74.5837C312.089 74.3779 312.225 74.2042 312.407 74.1006C312.59 73.9971 312.805 73.9723 313.005 74.0316L334.432 80.414C334.632 80.4738 334.802 80.6129 334.902 80.8009C335.003 80.9889 335.027 81.2103 334.969 81.4163C334.911 81.6224 334.775 81.7963 334.592 81.8997C334.409 82.0032 334.194 82.0277 333.993 81.968Z" fill="#0386E5"/>
<path d="M332.951 87.9684L310.593 81.586C310.489 81.5564 310.393 81.507 310.308 81.4406C310.224 81.3742 310.154 81.2922 310.102 81.1991C310.05 81.106 310.017 81.0038 310.005 80.8982C309.993 80.7926 310.002 80.6857 310.033 80.5837C310.063 80.4816 310.113 80.3864 310.18 80.3035C310.248 80.2205 310.331 80.1515 310.426 80.1003C310.52 80.049 310.624 80.0166 310.731 80.0049C310.839 79.9932 310.947 80.0024 311.051 80.032L333.409 86.4145C333.618 86.4745 333.794 86.6138 333.899 86.8016C334.003 86.9894 334.028 87.2105 333.967 87.4163C333.907 87.6221 333.766 87.7958 333.575 87.8994C333.385 88.0029 333.16 88.0277 332.951 87.9684Z" fill="#0386E5"/>
<path d="M330.993 92.968L309.567 86.5856C309.367 86.5255 309.198 86.3862 309.097 86.1984C308.997 86.0106 308.973 85.7895 309.031 85.5837C309.089 85.3779 309.225 85.2042 309.407 85.1006C309.59 84.9971 309.805 84.9723 310.005 85.0316L331.432 91.414C331.632 91.4738 331.802 91.6129 331.902 91.8009C332.003 91.9889 332.027 92.2103 331.969 92.4163C331.911 92.6224 331.775 92.7963 331.592 92.8997C331.409 93.0032 331.194 93.0277 330.993 92.968Z" fill="#0386E5"/>
<path d="M409.681 439.521H326.804L329.613 403H406.871L409.681 439.521Z" fill="#E6E6E6"/>
<path d="M415.299 434.307H322.59V442.735H415.299V434.307Z" fill="#E6E6E6"/>
<path d="M526.972 167.714H210.215C207.979 167.714 205.836 168.602 204.255 170.183C202.675 171.763 201.787 173.907 201.787 176.142V369.287H535.4V176.142C535.4 175.036 535.182 173.94 534.758 172.917C534.335 171.895 533.714 170.966 532.931 170.183C532.149 169.4 531.22 168.779 530.197 168.356C529.175 167.932 528.079 167.714 526.972 167.714Z" fill="#444444"/>
<path d="M201.787 369.287V400.893C201.787 401.999 202.005 403.095 202.428 404.118C202.852 405.14 203.473 406.07 204.255 406.852C205.038 407.635 205.967 408.256 206.989 408.679C208.012 409.103 209.108 409.321 210.215 409.321H526.972C529.207 409.321 531.351 408.433 532.931 406.852C534.512 405.272 535.4 403.128 535.4 400.893V369.287H201.787Z" fill="#E6E6E6"/>
<path d="M519.246 185.273H218.643V353.835H519.246V185.273Z" fill="#E6E6E6"/>
<path d="M368.944 397.381C373.599 397.381 377.372 393.607 377.372 388.953C377.372 384.298 373.599 380.525 368.944 380.525C364.29 380.525 360.516 384.298 360.516 388.953C360.516 393.607 364.29 397.381 368.944 397.381Z" fill="#3F3D56"/>
<path d="M228.015 192.393C228.899 192.393 229.615 191.677 229.615 190.793C229.615 189.91 228.899 189.194 228.015 189.194C227.132 189.194 226.416 189.91 226.416 190.793C226.416 191.677 227.132 192.393 228.015 192.393Z" fill="white"/>
<path d="M234.087 192.393C234.97 192.393 235.686 191.677 235.686 190.793C235.686 189.91 234.97 189.194 234.087 189.194C233.203 189.194 232.487 189.91 232.487 190.793C232.487 191.677 233.203 192.393 234.087 192.393Z" fill="white"/>
<path d="M240.158 192.393C241.041 192.393 241.757 191.677 241.757 190.793C241.757 189.91 241.041 189.194 240.158 189.194C239.275 189.194 238.559 189.91 238.559 190.793C238.559 191.677 239.275 192.393 240.158 192.393Z" fill="white"/>
<path d="M510.582 196.228H226.416V337.793H510.582V196.228Z" fill="white"/>
<path d="M245.306 217.761C245.039 217.761 244.784 217.867 244.596 218.055C244.407 218.244 244.302 218.499 244.301 218.765V269.544C244.302 269.811 244.407 270.066 244.596 270.254C244.784 270.443 245.039 270.549 245.306 270.549H303.947C304.214 270.549 304.469 270.443 304.657 270.254C304.846 270.066 304.952 269.811 304.952 269.544V218.765C304.952 218.499 304.846 218.244 304.657 218.055C304.469 217.867 304.214 217.761 303.947 217.761H245.306Z" fill="#E6E6E6"/>
<path d="M339.462 217.924C339.196 217.924 338.94 218.03 338.752 218.219C338.563 218.407 338.457 218.662 338.457 218.929V269.544C338.457 269.811 338.563 270.066 338.752 270.254C338.94 270.443 339.196 270.549 339.462 270.549H397.917C398.183 270.549 398.438 270.443 398.626 270.254C398.815 270.066 398.921 269.811 398.921 269.544V218.929C398.921 218.662 398.815 218.407 398.626 218.219C398.438 218.031 398.183 217.925 397.917 217.924H339.462Z" fill="#E6E6E6"/>
<path d="M432.631 217.394C432.365 217.394 432.11 217.5 431.921 217.688C431.733 217.877 431.627 218.132 431.627 218.398V269.544C431.627 269.811 431.733 270.066 431.921 270.254C432.11 270.443 432.365 270.549 432.631 270.549H491.694C491.96 270.549 492.215 270.443 492.403 270.254C492.592 270.066 492.698 269.811 492.698 269.544V218.398C492.698 218.132 492.592 217.877 492.403 217.688C492.215 217.5 491.96 217.394 491.694 217.394H432.631Z" fill="#E6E6E6"/>
<path d="M246.378 295.684C245.828 295.685 245.3 295.905 244.912 296.294C244.523 296.683 244.305 297.211 244.305 297.761C244.305 298.311 244.523 298.839 244.912 299.228C245.3 299.618 245.828 299.837 246.378 299.838H301.512C302.062 299.837 302.59 299.618 302.978 299.228C303.367 298.839 303.585 298.311 303.585 297.761C303.585 297.211 303.367 296.683 302.978 296.294C302.59 295.905 302.062 295.685 301.512 295.684H246.378Z" fill="#E6E6E6"/>
<path d="M246.378 305.563C245.828 305.564 245.3 305.784 244.912 306.173C244.523 306.563 244.305 307.09 244.305 307.641C244.305 308.191 244.523 308.719 244.912 309.108C245.3 309.497 245.828 309.717 246.378 309.718H271.202C271.752 309.717 272.279 309.497 272.668 309.108C273.057 308.719 273.275 308.191 273.275 307.641C273.275 307.09 273.057 306.563 272.668 306.173C272.279 305.784 271.752 305.564 271.202 305.563H246.378Z" fill="#0386E5"/>
<path d="M341.546 295.684C340.996 295.685 340.468 295.905 340.08 296.294C339.691 296.683 339.473 297.211 339.473 297.761C339.473 298.311 339.691 298.839 340.08 299.228C340.468 299.618 340.996 299.837 341.546 299.838H396.68C397.23 299.837 397.758 299.618 398.146 299.228C398.535 298.839 398.753 298.311 398.753 297.761C398.753 297.211 398.535 296.683 398.146 296.294C397.758 295.905 397.23 295.685 396.68 295.684H341.546Z" fill="#E6E6E6"/>
<path d="M341.546 305.563C340.996 305.564 340.468 305.784 340.08 306.173C339.691 306.563 339.473 307.09 339.473 307.641C339.473 308.191 339.691 308.719 340.08 309.108C340.468 309.497 340.996 309.717 341.546 309.718H366.37C366.92 309.717 367.448 309.497 367.836 309.108C368.225 308.719 368.443 308.191 368.443 307.641C368.443 307.09 368.225 306.563 367.836 306.173C367.448 305.784 366.92 305.564 366.37 305.563H341.546Z" fill="#0386E5"/>
<path d="M434.336 295.684C433.786 295.685 433.258 295.905 432.87 296.294C432.481 296.683 432.263 297.211 432.263 297.761C432.263 298.311 432.481 298.839 432.87 299.228C433.258 299.618 433.786 299.837 434.336 299.838H489.47C490.02 299.837 490.548 299.618 490.936 299.228C491.325 298.839 491.543 298.311 491.543 297.761C491.543 297.211 491.325 296.683 490.936 296.294C490.548 295.905 490.02 295.685 489.47 295.684H434.336Z" fill="#E6E6E6"/>
<path d="M246.378 285.481C245.828 285.482 245.3 285.702 244.912 286.091C244.523 286.48 244.305 287.008 244.305 287.558C244.305 288.108 244.523 288.636 244.912 289.025C245.3 289.415 245.828 289.634 246.378 289.635H301.512C302.062 289.634 302.59 289.415 302.978 289.025C303.367 288.636 303.585 288.108 303.585 287.558C303.585 287.008 303.367 286.48 302.978 286.091C302.59 285.702 302.062 285.482 301.512 285.481H246.378Z" fill="#E6E6E6"/>
<path d="M341.546 285.481C340.996 285.482 340.468 285.702 340.08 286.091C339.691 286.48 339.473 287.008 339.473 287.558C339.473 288.108 339.691 288.636 340.08 289.025C340.468 289.415 340.996 289.634 341.546 289.635H396.68C397.23 289.634 397.758 289.415 398.146 289.025C398.535 288.636 398.753 288.108 398.753 287.558C398.753 287.008 398.535 286.48 398.146 286.091C397.758 285.702 397.23 285.482 396.68 285.481H341.546Z" fill="#E6E6E6"/>
<path d="M434.336 285.481C433.786 285.482 433.258 285.702 432.87 286.091C432.481 286.48 432.263 287.008 432.263 287.558C432.263 288.108 432.481 288.636 432.87 289.025C433.258 289.415 433.786 289.634 434.336 289.635H489.47C490.02 289.634 490.548 289.415 490.936 289.025C491.325 288.636 491.543 288.108 491.543 287.558C491.543 287.008 491.325 286.48 490.936 286.091C490.548 285.702 490.02 285.482 489.47 285.481H434.336Z" fill="#E6E6E6"/>
<path d="M434.335 305.563C433.785 305.564 433.257 305.784 432.869 306.173C432.48 306.563 432.262 307.09 432.262 307.641C432.262 308.191 432.48 308.719 432.869 309.108C433.257 309.497 433.785 309.717 434.335 309.718H459.159C459.709 309.717 460.236 309.497 460.625 309.108C461.014 308.719 461.232 308.191 461.232 307.641C461.232 307.09 461.014 306.563 460.625 306.173C460.236 305.784 459.709 305.564 459.159 305.563H434.335Z" fill="#0386E5"/>
<g opacity="0.5">
<g filter="url(#filter0_f_2074_4861)">
<circle cx="4.5" cy="4.5" r="4.5" transform="matrix(-1 0 0 1 372.195 473)" fill="#0386E5"/>
</g>
<path d="M745.195 627C574.529 620.667 264.595 575.4 390.195 445" stroke="#61A4D4"/>
</g>
<path d="M593.518 446.792V454.528H131V443.352L173.985 421H555.692L593.518 446.792Z" fill="#E6E6E6"/>
<path opacity="0.1" d="M593.518 446.792V454.528H131V443.352L593.518 446.792Z" fill="black"/>
<path opacity="0.1" d="M433.376 437.428V439.634H314.7V437.869L314.863 437.428H433.376Z" fill="black"/>
<defs>
<filter id="filter0_f_2074_4861" x="361.195" y="471" width="13" height="13" filterUnits="userSpaceOnUse" color-interpolation-filters="sRGB">
<feFlood flood-opacity="0" result="BackgroundImageFix"/>
<feBlend mode="normal" in="SourceGraphic" in2="BackgroundImageFix" result="shape"/>
<feGaussianBlur stdDeviation="1" result="effect1_foregroundBlur_2074_4861"/>
</filter>
</defs>
</svg>
