<?xml version="1.0" encoding="UTF-8"?><svg xmlns="http://www.w3.org/2000/svg" xmlns:xlink="http://www.w3.org/1999/xlink" viewBox="0 0 502.86 138"><defs><style>.h{fill:url(#f);}.i{fill:url(#g);}.j{fill:url(#d);}.k{fill:url(#e);}.l{fill:#2492c3;}</style><linearGradient id="d" x1="116.28" y1="108.23" x2="159.2" y2="120.99" gradientTransform="translate(233.61 -35.45) rotate(82.98)" gradientUnits="userSpaceOnUse"><stop offset="0" stop-color="#2e318b"/><stop offset=".51" stop-color="#2491c2"/><stop offset="1" stop-color="#9bffff"/></linearGradient><linearGradient id="e" x1="43.16" y1="51.87" x2="67.07" y2="53.52" gradientTransform="translate(31.91 -20.04) rotate(28.54)" gradientUnits="userSpaceOnUse"><stop offset="0" stop-color="#2e318b"/><stop offset=".51" stop-color="#2491c2"/><stop offset="1" stop-color="#9bffff"/></linearGradient><linearGradient id="f" x1="75.56" y1="6.49" x2="88.71" y2="26.52" gradientTransform="matrix(1, 0, 0, 1, 0, 0)" gradientUnits="userSpaceOnUse"><stop offset="0" stop-color="#2e318b"/><stop offset=".51" stop-color="#2491c2"/><stop offset="1" stop-color="#9bffff"/></linearGradient><linearGradient id="g" x1="-4.5" y1="-206.55" x2="119.56" y2="320.41" gradientTransform="matrix(1, 0, 0, 1, 0, 0)" gradientUnits="userSpaceOnUse"><stop offset=".49" stop-color="#2d2d8d"/><stop offset=".56" stop-color="#2491c2"/><stop offset=".65" stop-color="#9bffff"/></linearGradient></defs><g id="a"/><g id="b"><g id="c"><g><circle class="j" cx="136.84" cy="114.34" r="22.38" transform="translate(6.64 236.19) rotate(-82.98)"/><circle class="k" cx="55.36" cy="52.71" r="11.98" transform="translate(-18.46 32.86) rotate(-28.54)"/><circle class="h" cx="79.17" cy="11.98" r="11.98"/><path class="i" d="M131.21,57.48c0-12.36-10.02-22.38-22.38-22.38s-22.38,10.02-22.38,22.38c0,4.06,1.09,7.87,2.98,11.15h0c2.12,5.01,4.63,12.07,.15,21.24-4.47,9.17-18.12,11.43-18.12,11.43,0,0-11.58,1.38-19.04-4.36-7.46-5.73-9.43-12.79-9.43-12.79h0c-1.34-5.07-5.95-8.81-11.44-8.81-6.53,0-11.83,5.3-11.83,11.83,0,1.77,.39,3.44,1.08,4.94h0s1.6,8.4-1.08,13.87c-1.91,3.91-8.15,7.31-11.55,8.93-.79,.26-1.54,.59-2.24,1h-.02c-3.53,2.06-5.9,5.88-5.9,10.25,0,6.53,5.3,11.83,11.83,11.83s11.83-5.3,11.83-11.83c0-1.78-.4-3.47-1.1-4.98h0s-2.5-6.71,.58-13.42c2.44-5.31,8.02-7.91,10.23-8.76,0,0,.12-.05,.35-.12,1.92-.63,11.2-3.21,17.69,2.99,7.27,6.95,6.67,13.89,6.67,13.89l.09-.1c-.06,.56-.09,1.13-.09,1.71,0,9.03,7.32,16.35,16.35,16.35s16.35-7.32,16.35-16.35c0-.55-.03-1.09-.08-1.62h.08s.2-11.5,4.6-21.39c4.4-9.9,20.16-15.54,20.16-15.54h0c9.08-2.86,15.66-11.34,15.66-21.35Z"/><g><path class="l" d="M261.85,68.86h13.3v63.96h-13.37l-.51-9.27c-1.88,3.28-4.41,5.93-7.61,7.93s-6.97,3.01-11.32,3.01c-4.69,0-9.1-.89-13.24-2.65-4.14-1.77-7.77-4.23-10.91-7.39-3.13-3.15-5.58-6.79-7.32-10.91-1.75-4.11-2.62-8.54-2.62-13.27s.85-8.86,2.56-12.89c1.71-4.03,4.07-7.56,7.1-10.59,3.03-3.03,6.53-5.41,10.52-7.13,3.99-1.73,8.26-2.59,12.82-2.59s8.75,1.06,12.31,3.17c3.56,2.11,6.51,4.81,8.86,8.09l-.58-9.47Zm-19.83,52.77c3.75,0,7.04-.93,9.85-2.78s5-4.36,6.56-7.52c1.56-3.16,2.33-6.65,2.33-10.49s-.79-7.4-2.37-10.55c-1.58-3.16-3.76-5.66-6.56-7.52-2.79-1.85-6.07-2.78-9.82-2.78s-7.1,.94-10.17,2.81c-3.07,1.88-5.5,4.39-7.29,7.55-1.79,3.16-2.69,6.65-2.69,10.49s.93,7.39,2.78,10.52c1.85,3.13,4.31,5.63,7.36,7.48,3.05,1.85,6.39,2.78,10.01,2.78Z"/><path class="l" d="M314.81,134.48c-5.88,0-11.25-1.51-16.09-4.54-4.84-3.03-8.7-7.09-11.58-12.19-2.88-5.1-4.32-10.73-4.32-16.92,0-4.69,.83-9.07,2.49-13.14,1.66-4.07,3.95-7.65,6.88-10.75,2.92-3.09,6.32-5.51,10.2-7.26,3.88-1.75,8.02-2.62,12.41-2.62,5.88,0,11.25,1.51,16.09,4.54,4.84,3.03,8.7,7.1,11.58,12.22,2.88,5.12,4.32,10.79,4.32,17.01,0,4.65-.83,9-2.49,13.05-1.66,4.05-3.96,7.62-6.88,10.71-2.92,3.09-6.31,5.51-10.17,7.26-3.86,1.75-8.01,2.62-12.44,2.62Zm0-13.3c3.54,0,6.72-.94,9.53-2.81,2.81-1.88,5.04-4.36,6.68-7.45,1.64-3.09,2.46-6.45,2.46-10.07s-.84-7.12-2.53-10.23c-1.69-3.11-3.93-5.6-6.75-7.45s-5.95-2.78-9.4-2.78-6.66,.94-9.5,2.81c-2.84,1.88-5.07,4.37-6.72,7.48-1.64,3.11-2.46,6.5-2.46,10.17s.85,7.23,2.56,10.3c1.71,3.07,3.98,5.51,6.81,7.32,2.84,1.81,5.94,2.72,9.31,2.72Z"/><path class="l" d="M390.55,82.16h-13.43l-.06,50.66h-13.3l.06-50.66h-10.17v-13.3h10.17l-.06-20.08h13.3l.06,20.08h13.43v13.3Z"/><path class="l" d="M401.99,132.82v-63.96h13.3v6.78c2.22-2.64,4.93-4.73,8.16-6.27,3.22-1.54,6.71-2.3,10.46-2.3,4.56,0,8.76,1.1,12.6,3.29,3.84,2.2,6.89,5.11,9.15,8.73,2.26-3.62,5.28-6.53,9.05-8.73,3.77-2.2,7.94-3.29,12.5-3.29s9.04,1.15,12.92,3.45c3.88,2.3,6.97,5.4,9.27,9.27,2.3,3.88,3.45,8.19,3.45,12.92v40.1h-13.3v-36.71c0-2.81-.68-5.39-2.05-7.74-1.37-2.34-3.2-4.24-5.5-5.69-2.3-1.45-4.86-2.17-7.68-2.17s-5.37,.68-7.68,2.05c-2.3,1.37-4.14,3.22-5.5,5.56-1.37,2.35-2.05,5.01-2.05,8v36.71h-13.3v-36.71c0-2.98-.68-5.65-2.05-8-1.37-2.34-3.21-4.2-5.53-5.56-2.33-1.36-4.89-2.05-7.71-2.05s-5.32,.73-7.64,2.17c-2.32,1.45-4.17,3.35-5.53,5.69-1.37,2.35-2.05,4.93-2.05,7.74v36.71h-13.3Z"/></g></g></g></g></svg>